# xmcd
#
# Track frame offsets: 
#        150
#        3182
#        18561
#        32571
#        50597
#        72545
#        92762
#        104619
#        118810
#        134790
#        138599
#        150494
#        164454
#        170790
#        189739
#        204560
#        221493
#        243526
#        266191
#        291381
#        313916
#        332787
#
# Disc length: 4661 seconds
#
# Revision: 0
# Processed by: cddbd v1.5.2PL0 Copyright (c) Steve Scherf et al.
# Submitted via: ExactAudioCopyFreeDBPlugin 1.0
#
DISCID=63123316
DTITLE=John Legend - Love In The Future [SICP-4377]
DYEAR=2015
DGENRE=Funk - Soul
TTITLE0=Love In The Future (Intro)
TTITLE1=The Beginning...
TTITLE2=Open Your Eyes
TTITLE3=Made To Love
TTITLE4=Who Do We Think We Are (feat. Rick Ross)
TTITLE5=All Of Me
TTITLE6=Hold On Longer
TTITLE7=Save The Night
TTITLE8=Tomorrow
TTITLE9=What If I Told You? (Interlude)
TTITLE10=Dreams
TTITLE11=Wanna Be Loved
TTITLE12=Angel (Interlude) (feat. Stacy Barthe)
TTITLE13=You and I (Nobody In The World)
TTITLE14=Asylum
TTITLE15=Caught Up
TTITLE16=Dancing In The Dark (Live)
TTITLE17=Bridge Over Trouble Water (Live)
TTITLE18=Ordinary People (Live)
TTITLE19=All Of Me (Live)
TTITLE20=All Of Me (Tiesto's Birthday Treatment Remix - Radio Edit)
TTITLE21=You and I (Nobody In The World)(Benny Cassette Remix)
EXTD=
EXTT0=
EXTT1=
EXTT2=
EXTT3=
EXTT4=
EXTT5=
EXTT6=
EXTT7=
EXTT8=
EXTT9=
EXTT10=
EXTT11=
EXTT12=
EXTT13=
EXTT14=
EXTT15=
EXTT16=
EXTT17=
EXTT18=
EXTT19=
EXTT20=
EXTT21=
PLAYORDER=
